<svg width="449" height="394" viewBox="0 0 449 394" fill="none" xmlns="http://www.w3.org/2000/svg">
<path d="M-16 173.854H42.049C61.3618 173.854 77.0221 158.24 77.0221 138.984V0H123.506V138.984C123.506 158.24 139.166 173.854 158.479 173.854H274.521C293.834 173.854 309.495 158.24 309.495 138.984V46.3464H355.978V138.984C355.978 158.24 371.638 173.854 390.951 173.854H449V220.201H390.951C371.638 220.201 355.978 235.815 355.978 255.071V347.598H309.495V255.071C309.495 235.815 293.834 220.201 274.521 220.201H158.479C139.166 220.201 123.506 235.815 123.506 255.071V394H77.0221V255.071C77.0221 235.815 61.3618 220.201 42.049 220.201H-16V173.854Z" fill="url(#paint0_linear_1055_145)" fill-opacity="0.2"/>
<defs>
<linearGradient id="paint0_linear_1055_145" x1="-16" y1="197.028" x2="448.945" y2="197.028" gradientUnits="userSpaceOnUse">
<stop stop-color="#2581C4"/>
<stop offset="0.25" stop-color="#2DAFE6"/>
<stop offset="0.29" stop-color="#3FB5E6"/>
<stop offset="0.36" stop-color="#6FC6E7"/>
<stop offset="0.47" stop-color="#BCE2EA"/>
<stop offset="0.5" stop-color="#D3EAE8"/>
<stop offset="0.62" stop-color="#8FC59B"/>
<stop offset="0.71" stop-color="#64AD6B"/>
<stop offset="0.75" stop-color="#54A559"/>
<stop offset="1" stop-color="#00933A"/>
</linearGradient>
</defs>
</svg>
